<svg version="1.2" xmlns="http://www.w3.org/2000/svg" viewBox="0 0 1532 289" width="1532" height="289">
	<title>Olympus_Corporation_logo-svg</title>
	<style>
		.s0 { fill: #f6d900 } 
		.s1 { fill: #343e8b } 
	</style>
	<g id="Ebene_x0020_1">
		<g id="_138079608">
			<path id="_137713304" class="s0" d="m0.3 259.9l749.8-19.3 749.9 19.3v8.9l-749.9 19.3-749.8-19.3z"/>
			<g id="Layer">
				<path id="_137792048" class="s1" d="m259.8 11.5h71.6v133h90v38.7h-161.6z"/>
				<path id="_137791288" class="s1" d="m1167.2 190.1c-55.8 0-102.7-16.6-102.7-62.3v-116.3h69.3v111c0 21.4 15.9 31.2 33.4 31.2 17.6 0 33.5-9.8 33.5-31.2v-111h69.2v116.3c0 45.7-46.9 62.3-102.7 62.3z"/>
				<path id="_137791360" class="s1" d="m1385.1 41c-20.7 0-27.9 7.9-27.9 15.3 0 7.3 5.3 12.6 20 15.2 11.2 1.9 40.1 7.3 61 11.5 40 8 56.2 24.7 56.2 49.9 0 46.3-56.9 57.7-104.5 57.7-47.4 0-107.4-10.3-111.7-57h74.6c3.3 14.1 15.4 20.4 35.5 20.4 21.2 0 31.5-5.7 31.5-16.9 0-10.5-9.2-14.1-27-18-12.7-2.8-38.3-7.2-53.6-10.2-21.6-4.4-52.3-14.5-52.3-45.9 0-43 56-57.1 99-57.1 43.1 0 98.6 11.8 102.5 51.2h-73.3c-3.1-11-12.5-16.1-30-16.1z"/>
				<path id="_137708120" fill-rule="evenodd" class="s1" d="m916.3 120v63.2h-68.1v-171.7h138.6c53.5 0 64.6 35.5 64.6 54.8 0 20.9-13.1 53.7-64.6 53.7 0 0-70.5 0-70.5 0zm45.3-37.5c15.5 0 21.1-7.7 21.1-17.3 0-10.9-9.7-16.2-21-16.2h-45.4v33.5z"/>
				<path id="_137709352" class="s1" d="m507.6 15.7l1.9-4.2h71.9l-74.8 113.9v57.8h-67.9v-57.8l-74.6-113.9h71.6l2 4.2 32.4 56.8c2.2 3.7 2.8 3.7 5.2 0 0 0 32.3-56.8 32.3-56.8z"/>
				<path id="_137710928" class="s1" d="m687.7 183.2l-1.3-3.4-36.5-84.9c-1-2.2-3.2-1.6-3.2 0.4v87.9h-58.6v-171.7h70.8l1.3 3.7 43.7 98.5c1.6 3.7 3.1 3.7 4.7 0l43.7-98.5 1.3-3.7h70.8v171.7h-58.6v-87.9c0-2-2.3-2.6-3.2-0.4l-36.5 84.9-1.3 3.4c0 0-37.1 0-37.1 0z"/>
				<path id="_137711944" fill-rule="evenodd" class="s1" d="m243.6 97.3c0 57.7-50 92.4-119.9 92.4-69.8 0-119.8-34.7-119.8-92.4 0-57.7 50-92.4 119.8-92.4 69.9 0 119.9 34.7 119.9 92.4zm-72 0c0-34.7-18-56.1-47.9-56.1-29.8 0-47.8 21.4-47.8 56.1 0 34.8 18 56.2 47.8 56.2 29.9 0 47.9-21.4 47.9-56.2z"/>
				<path id="_137715720" fill-rule="evenodd" class="s1" d="m1516 9c3.7 0.1 5.9 3.3 5.9 6.6 0 3.6-3.3 5.9-5.1 6.5l4.6 9.9h-4l-4.9-10.1h-5.5v10.1h-4.2v-23zm-9 9.7h8.3c2.2-0.7 2.4-1.8 2.5-3.4 0-1.5-1.4-3.1-2.8-3.1h-8z"/>
				<path id="_137715792" fill-rule="evenodd" class="s1" d="m1511.6 40.7c-11.2 0-20.2-9-20.2-20.2 0-11.1 9-20.1 20.2-20.1 11.1 0 20.1 9 20.1 20.1 0 11.2-9 20.2-20.1 20.2zm16.8-20.3c0-9.4-7.5-16.9-16.9-16.9-9.3 0-16.8 7.5-16.8 16.9 0 9.3 7.5 16.9 16.8 16.9 9.4 0 16.9-7.6 16.9-16.9z"/>
			</g>
		</g>
	</g>
</svg>