<svg version="1.2" baseProfile="tiny-ps" xmlns="http://www.w3.org/2000/svg" viewBox="0 0 1552 275" width="1552" height="275">
	<title>sony logo-svg</title>
	<style>
		tspan { white-space:pre }
		.shp0 { fill: #000000 } 
	</style>
	<g id="Layer">
		<path id="Layer" class="shp0" d="M552.96 273.96C496.79 273.96 444.66 257.08 409.86 225.79C383.56 202.15 370.93 170.02 370.93 136.97C370.93 104.31 384.11 71.97 409.86 48.46C442.16 18.95 499.23 0.47 552.96 0.47C612.41 0.47 659.99 15.47 696.37 48.54C722.25 72.07 734.77 104.27 734.77 136.97C734.77 168.68 721.49 202.44 696.37 225.79C662.5 257.28 609.27 273.96 552.96 273.96L552.96 237.88C582.77 237.88 610.42 227.57 629.73 208.33C648.91 189.21 657.85 165.69 657.85 136.97C657.85 109.44 648.21 83.72 629.73 65.47C610.67 46.66 582.37 36.08 552.96 36.08C523.46 36.08 495.12 46.56 476.06 65.47C457.68 83.71 448.02 109.52 448.02 136.97C448.02 164.33 457.78 190.11 476.06 208.33C495.13 227.35 523.37 237.88 552.96 237.88L552.96 273.96Z" />
		<path id="Layer" class="shp0" d="M142.45 0.6C112.4 0.6 78.26 6.23 49.27 19.2C22.51 31.17 0.59 50.52 0.59 82.6C0.58 111.49 18.91 128.41 18.41 127.95C26.21 135.14 38.76 147.38 71.56 154.58C86.23 157.79 117.58 162.72 148.81 166C179.79 169.27 210.3 172.38 222.71 175.54C232.58 178.05 249.17 181.48 249.17 200.11C249.17 218.67 231.71 224.34 228.67 225.56C225.63 226.77 204.68 236.4 167.01 236.4C139.21 236.4 105.78 228.02 93.59 223.65C79.55 218.64 64.81 212.02 51.06 195.2C47.64 191.02 42.25 179.56 42.25 168.2L8.16 168.2L8.16 263.9L46.06 263.9C46.06 263.9 46.06 253.41 46.06 250.97C46.06 249.5 47.89 243.44 54.25 246.33C62.17 249.93 85.39 259.2 109.68 264.28C129.6 268.44 142.45 271.44 167.2 271.44C207.6 271.44 229.31 264.85 244.31 260.55C258.45 256.51 275.9 249.22 290.1 237.88C297.78 231.76 314.63 216.04 314.63 187.52C314.63 160.15 299.97 143.16 294.81 137.99C287.78 130.95 279.19 125.48 270.25 121.27C262.46 117.6 250.16 113.19 240.1 110.72C220.57 105.92 176.41 100 155.28 97.78C133.15 95.46 94.73 92.27 79.39 87.51C74.73 86.07 65.26 81.54 65.26 70.52C65.26 62.67 69.59 56.02 78.16 50.64C91.76 42.11 119.24 36.79 147.89 36.79C181.76 36.67 210.44 44.43 228.69 52.6C234.9 55.37 242.15 59.37 247.92 64.08C254.42 69.4 263.57 80.44 266.86 95.84L297.47 95.84L297.47 12.54L263.3 12.54L263.3 22.21C263.3 25.35 260.08 29.41 253.99 26.05C238.69 18.02 195.45 0.67 142.45 0.6Z" />
		<path id="Layer" class="shp0" d="M891.32 15.74L1058.02 166.46L1056.31 64.98C1056.14 51.67 1053.69 46.12 1039.33 46.12C1020.13 46.12 1007.98 46.12 1007.98 46.12L1007.98 15.76L1150.52 15.76L1150.52 46.12C1150.52 46.12 1139.14 46.12 1119.93 46.12C1105.29 46.12 1104.37 50.82 1104.18 64.98L1106.77 258.89L1057.95 258.89L865.97 87.2L866 209.04C866.17 222.3 866.79 228.53 880.41 228.53C899.59 228.53 914.64 228.53 914.64 228.53L914.64 258.88L774.66 258.88L774.66 228.53C774.66 228.53 788.2 228.53 807.38 228.53C819.61 228.53 819.12 216.85 819.12 208.36L819.12 66.13C819.12 56.95 817.83 46.13 798.64 46.13L772.1 46.13L772.1 15.74L891.32 15.74Z" />
		<path id="Layer" class="shp0" d="M1313.39 228.47C1314.72 228.47 1320.67 228.3 1321.82 227.95C1325.11 226.92 1327.35 224.57 1328.38 222.11C1328.82 221.09 1329.04 216.52 1329.04 215.55C1329.04 215.55 1329.06 169.17 1329.06 167.57C1329.06 166.41 1328.97 165.91 1327.02 163.35C1324.87 160.54 1239.71 63.84 1235.81 59.59C1230.97 54.29 1222.47 46.12 1209.55 46.12C1199.28 46.12 1179.94 46.12 1179.94 46.12L1179.94 15.75L1347.08 15.75L1347.08 46.08C1347.08 46.08 1330.82 46.08 1326.93 46.08C1322.28 46.08 1319.18 50.51 1323.16 55.43C1323.16 55.43 1379.4 122.83 1379.93 123.55C1380.46 124.25 1380.9 124.43 1381.61 123.77C1382.32 123.1 1439.26 56.05 1439.71 55.52C1442.41 52.27 1440.59 46.12 1434.75 46.12C1430.85 46.12 1414.07 46.12 1414.07 46.12L1414.07 15.75L1551.07 15.75L1551.07 46.12C1551.07 46.12 1530.73 46.12 1520.46 46.12C1509.35 46.12 1504.83 48.17 1496.48 57.64C1492.66 61.97 1406.59 160.4 1404.25 163.07C1403.02 164.47 1403.13 166.41 1403.13 167.57C1403.13 169.42 1403.13 211.09 1403.13 215.53C1403.13 216.5 1403.35 221.06 1403.79 222.09C1404.82 224.55 1407.06 226.9 1410.35 227.92C1411.5 228.28 1417.37 228.45 1418.7 228.45C1424.72 228.45 1450.01 228.45 1450.01 228.45L1450.01 258.82L1283.72 258.82L1283.72 228.45L1313.39 228.47Z" />
	</g>
</svg>